<svg width="4104" height="2560" viewBox="0 0 4104 2560" fill="none" xmlns="http://www.w3.org/2000/svg">
<path d="M148 1007H360L362 1175C387.333 1119 427.333 1073 482 1037C536.667 1001 600.667 983 674 983C768.667 983 841.333 1003 892 1043C942.667 1081.67 976.667 1136.33 994 1207C1011.33 1277.67 1020 1369.67 1020 1483V1925H804V1489C804 1373 792.667 1289.67 770 1239C747.333 1187 700.667 1161 630 1161C590 1161 549.333 1173.67 508 1199C466.667 1223 432 1258.33 404 1305C377.333 1351.67 364 1406.33 364 1469V2175H148V1007Z" fill="black"/>
<path d="M1732.39 1945C1623.06 1945 1531.72 1923.67 1458.39 1881C1385.06 1837 1331.06 1779 1296.39 1707C1261.72 1633.67 1244.39 1553.67 1244.39 1467C1244.39 1369.67 1264.39 1284.33 1304.39 1211C1345.72 1137.67 1402.39 1081.67 1474.39 1043C1546.39 1003 1627.72 983 1718.39 983C1859.72 983 1964.39 1022.33 2032.39 1101C2101.72 1178.33 2136.39 1287.67 2136.39 1429C2136.39 1465 2134.39 1502.33 2130.39 1541H1470.39C1485.06 1622.33 1513.72 1681 1556.39 1717C1600.39 1753 1661.06 1771 1738.39 1771C1802.39 1771 1855.06 1765.67 1896.39 1755C1937.72 1744.33 1975.72 1729.67 2010.39 1711L2076.39 1865C2043.06 1886.33 1997.72 1905 1940.39 1921C1883.06 1937 1813.72 1945 1732.39 1945ZM1926.39 1391C1927.72 1308.33 1909.72 1250.33 1872.39 1217C1835.06 1182.33 1781.72 1165 1712.39 1165C1572.39 1165 1491.72 1240.33 1470.39 1391H1926.39Z" fill="black"/>
<path d="M2768.84 1945C2686.18 1945 2609.51 1925.67 2538.84 1887C2469.51 1847 2413.51 1791 2370.84 1719C2329.51 1645.67 2308.84 1560.33 2308.84 1463C2308.84 1367 2326.84 1283 2362.84 1211C2400.18 1139 2452.84 1083 2520.84 1043C2588.84 1003 2668.84 983 2760.84 983C2814.18 983 2864.18 992.333 2910.84 1011C2957.51 1029.67 2996.84 1053 3028.84 1081C3060.84 1107.67 3082.18 1134.33 3092.84 1161L3096.84 1007H3302.84V1925H3098.84L3094.84 1763C3072.18 1811 3030.84 1853.67 2970.84 1891C2910.84 1927 2843.51 1945 2768.84 1945ZM2804.84 1765C2880.84 1765 2944.84 1739 2996.84 1687C3048.84 1633.67 3074.84 1564.33 3074.84 1479V1465C3074.84 1407.67 3062.84 1356.33 3038.84 1311C3014.84 1265.67 2982.18 1230.33 2940.84 1205C2899.51 1179.67 2854.18 1167 2804.84 1167C2719.51 1167 2653.51 1195 2606.84 1251C2560.18 1305.67 2536.84 1377 2536.84 1465C2536.84 1554.33 2559.51 1627 2604.84 1683C2651.51 1737.67 2718.18 1765 2804.84 1765Z" fill="black"/>
<path d="M3673.31 1183H3511.31V1007H3673.31V383H3891.31V1007H4103.31V1183H3891.31V1925H3673.31V1183Z" fill="black"/>
<path d="M3785 0L4007.57 385.5H3562.43L3785 0Z" fill="black"/>
<path d="M257 2560L34.4314 2174.5L479.568 2174.5L257 2560Z" fill="black"/>
</svg>
